<?xml version="1.0" encoding="iso-8859-1"?>
<!-- Generator: Adobe Illustrator 19.0.0, SVG Export Plug-In . SVG Version: 6.00 Build 0)  -->
<svg version="1.1" id="Capa_1" xmlns="http://www.w3.org/2000/svg" xmlns:xlink="http://www.w3.org/1999/xlink" x="0px" y="0px"
	 viewBox="0 0 414.004 414.004" style="enable-background:new 0 0 414.004 414.004;" xml:space="preserve">
<g>
	<g>
		<g>
			<path d="M397.003,11.48c-9.4,0-17,7.6-17,17v310.5c0,9.4,7.7,17,17.1,17h0.1c9.4-0.1,16.9-7.7,16.8-17l0-310.5
				C414.003,19.08,406.403,11.48,397.003,11.48z"/>
			<path d="M20.603,128.981c-11.5,0.2-20.8,9.7-20.6,21.2v67.1c0,0.1,0,0.3,0,0.5c0.2,11.4,9.5,20.4,20.8,20.2h25.2v-109h-25.2
				C20.803,128.981,20.703,128.981,20.603,128.981z"/>
			<path d="M149.203,281.98h-60.7l14.2,95c1.1,7.1,4.7,13.6,10.1,18.2c12.5,10.9,31.5,9.5,42.3-3.1c5.8-6.6,8.3-15.3,7-23.9
				L149.203,281.98z"/>
			<path d="M189.003,121.281v124.9c36.1,0.4,71.5,9.5,103.2,26.6l67.8,36.5V58.18l-67.8,36.5
				C260.503,111.781,225.103,120.88,189.003,121.281z"/>
			<path d="M158.003,105.981h-80.9c-6,0-11.1,4.5-11.1,10.5v134.4c0.1,6.1,5,11,11.1,11.1h80.9c5.2,0,9.6-3.6,10.7-8.6
				c0.2-0.8,0.3-1.7,0.3-2.5v-134.4c0-0.7-0.1-1.4-0.3-2.1C167.503,109.38,163.103,105.88,158.003,105.981z"/>
		</g>
	</g>
</g>
<g>
</g>
<g>
</g>
<g>
</g>
<g>
</g>
<g>
</g>
<g>
</g>
<g>
</g>
<g>
</g>
<g>
</g>
<g>
</g>
<g>
</g>
<g>
</g>
<g>
</g>
<g>
</g>
<g>
</g>
</svg>
